# xmcd
#
# Track frame offsets:
#	150
#	15630
#	30875
#	48447
#	61305
#	76775
#	93757
#	106507
#	120382
#	134730
#	153112
#	167962
#	179975
#	194585
#
# Disc length: 2790 seconds
#
# Revision: 1
# Processed by: cddbd v1.4PL0 Copyright (c) Steve Scherf et al.
# Submitted via: CDmax 1.8
#
DISCID=ab0ae40e
DTITLE=Tracie Lynn - Girl Talk
DYEAR=1999
DGENRE=Country
TTITLE0=Girl Talk
TTITLE1=A Man I Can't Live Without
TTITLE2=Dare To Cross That Line
TTITLE3=He's Got A Way
TTITLE4=Blame It On The Moon
TTITLE5=Girl Out Of Texas
TTITLE6=Life Ain't That Deep
TTITLE7=Cajun Marie
TTITLE8=Just Another Day
TTITLE9=I Want To Come Back As A Man
TTITLE10=Not My Style
TTITLE11=The One That Got Away
TTITLE12=Tonight We Ride
TTITLE13=Letting Go
EXTD=
EXTT0=
EXTT1=
EXTT2=
EXTT3=
EXTT4=
EXTT5=
EXTT6=
EXTT7=
EXTT8=
EXTT9=
EXTT10=
EXTT11=
EXTT12=
EXTT13=
PLAYORDER=
